# xmcd
#
# Track frame offsets:
#	150
#	22056
#	39738
#
# Disc length: 743 seconds
#
# Revision: 0
# Processed by: cddbd v1.5.2PL0 Copyright (c) Steve Scherf et al.
# Submitted via: audiograbber 1.83.01
#
DISCID=2102e503
DTITLE=Erin Kincaid - follow you
DYEAR=1900
DGENRE=Folk
TTITLE0=Follow You
TTITLE1=Bright Morning Star
TTITLE2=Freely
EXTD=
EXTT0=
EXTT1=
EXTT2=
PLAYORDER=
